PathFileType	4	(X/Y/Z)	D:\TRACE\v60_Jaco2_6-2-23\ArmBodyNoDRS_DMP_1-v60.trc
DataRate	CameraRate	NumFrames	NumMarkers	Units	OrigDataRate	OrigDataStartFrame	OrigNumFrames
100.00	100.00	      14	9	mm	100.00	665	      5315
Frame#	Time	front left toe			Front right toe			aft left toe			aft right toe			Arm			FL body			FR body			AL Body			AR Body			
		X1	Y1	Z1	X2	Y2	Z2	X3	Y3	Z3	X4	Y4	Z4	X5	Y5	Z5	X6	Y6	Z6	X7	Y7	Z7	X8	Y8	Z8	X9	Y9	Z9	

665	6.640	-87.17200	19.63642	-164.79617	280.99261	65.81593	-164.77905	-60.65502	62.63519	477.94778	314.41605	16.76940	438.47110	112.67038	1203.68945	-254.10829	12.34805	577.39954	-298.55460	170.71635	577.10858	-305.70868	64.35685	551.01215	645.65735	217.81918	537.83313	637.80481	
666	6.650	-86.58102	19.18678	-164.71298	281.52542	57.43991	-163.61108	-60.35485	53.33192	478.64148	314.37296	16.78815	438.49100	112.08437	1203.42224	-254.64163	11.62320	577.51727	-298.20700	170.46323	577.06097	-305.50439	64.07546	551.13489	646.18091	218.00214	537.93298	638.25330	
667	6.660	-86.54941	19.12589	-164.64537	281.07971	49.18545	-163.35715	-60.75374	44.33575	478.94174	314.33865	16.79872	438.53326	111.54583	1203.30225	-254.89952	11.12121	577.50238	-297.57410	170.21761	577.39331	-305.45026	64.38692	550.59143	646.22437	218.16069	537.91638	638.60419	
668	6.670	-86.58498	19.07314	-164.61206	281.54437	41.28658	-163.05008	-60.91807	36.21817	479.08597	314.34802	16.81858	438.55298	111.32788	1203.22351	-254.96988	10.76040	577.55200	-297.16937	169.63786	577.35706	-304.76797	64.36315	550.37811	646.69989	218.20520	537.82153	639.05988	
669	6.680	-86.68802	19.14156	-164.61098	281.37604	34.53960	-163.22676	-61.30491	28.70784	478.65421	314.25562	16.66889	438.47623	110.96280	1203.09570	-254.98175	10.23785	577.60254	-296.68079	169.11423	577.10840	-303.64920	64.12872	550.10345	647.28235	218.21039	537.64508	639.46686	
670	6.690	-86.72179	19.12705	-164.62410	282.24701	28.48821	-163.40251	-61.51034	22.14637	477.94833	314.38123	16.70944	438.48349	110.40948	1203.01953	-254.85672	9.92041	577.63062	-296.24057	169.16136	577.75482	-304.03250	64.02881	549.78992	647.64435	218.07272	537.42999	639.70612	
671	6.700	-86.69511	19.09801	-164.60439	281.49500	21.77110	-164.60170	-61.59401	15.74270	477.08673	314.35434	16.66366	438.50970	109.65474	1203.08972	-254.64656	9.57813	577.67175	-295.83499	168.63951	577.88257	-303.66476	63.94345	549.27844	647.66119	217.73331	537.20874	640.06866	
672	6.710	-86.67132	18.97553	-164.60945	281.33633	20.45454	-166.55452	-62.28177	14.87070	476.11765	314.36160	16.63342	438.51886	109.00490	1203.05420	-254.46376	9.18352	577.77332	-295.44412	168.17081	577.96399	-303.33215	64.12119	549.27197	648.53894	217.36223	537.06964	640.01929	
673	6.720	-86.62488	18.95265	-164.48422	282.15195	18.42858	-166.65471	-62.87503	13.88544	475.69485	314.21075	16.91318	438.58557	108.10504	1203.18518	-254.22893	8.58778	577.91760	-294.89893	167.55878	577.57343	-302.37769	63.83338	550.58008	649.01117	217.82436	538.27716	640.86505	
674	6.730	-86.60880	19.11090	-164.30325	282.01526	17.77368	-166.63762	-62.65214	14.05328	476.64655	313.69553	17.32449	438.54083	106.83149	1203.70898	-254.38399	8.09425	578.39557	-294.42584	166.75337	578.66724	-302.01160	64.03575	551.48730	649.76459	218.07848	539.66675	641.66504	
675	6.740	-87.11694	20.45459	-164.50093	281.62064	17.90327	-166.15674	-62.35594	13.73037	476.98685	313.31821	18.03379	438.28049	106.00591	1204.62146	-254.86258	7.43103	579.44177	-293.83124	166.66759	580.58453	-301.84265	63.55265	551.96008	649.69385	217.14877	540.34198	641.24542	
676	6.750	-85.22190	23.54809	-164.56609	281.40622	17.96468	-165.38713	-62.69775	13.10655	476.60312	313.21423	20.22638	439.32739	104.55123	1205.81787	-254.82472	6.90673	580.99017	-293.44818	166.07011	582.18213	-301.65805	64.26370	552.86865	651.18188	217.50783	540.57587	642.19849	
677	6.760	-82.29428	26.80273	-161.88127	281.06802	18.59903	-166.20331	-62.84734	13.02845	476.55969	310.84241	22.73454	442.18137	102.84790	1206.81750	-254.24556	6.39970	582.51819	-293.18457	165.26508	583.29022	-301.23380	63.64415	552.55963	650.25250	217.59970	540.54468	642.23846	
678	6.770	-78.86781	32.79282	-160.07687	281.34311	18.50179	-166.25772	-62.78905	12.86278	476.53384	306.88651	29.08781	443.37219	101.23143	1208.17126	-253.11839	6.30608	583.06049	-292.90097	165.01991	584.13287	-301.00198	63.73430	552.80701	650.88153	217.42180	540.77985	642.25409	
